<svg width="38" height="36" viewBox="0 0 38 36" fill="none" xmlns="http://www.w3.org/2000/svg">
<path fill-rule="evenodd" clip-rule="evenodd" d="M25.7937 33.763C25.3276 33.6817 24.9126 33.6567 24.9126 33.3817C24.9126 33.2754 24.9693 33.1631 25.0603 33.0883C25.1401 33.0193 25.3503 32.9943 25.4923 32.9943C25.6404 32.9943 25.7882 33.0756 25.879 33.1819C25.9357 33.2569 26.0039 33.3756 26.0155 33.5007H26.7717C26.7547 33.1946 26.6352 32.8945 26.4191 32.7257C26.2089 32.557 25.9359 32.3507 25.5605 32.3507C25.2027 32.3507 24.8501 32.3634 24.6057 32.5632C24.361 32.7568 24.1849 33.0816 24.1849 33.3631C24.1849 33.5257 24.1737 33.7192 24.2306 33.8378C24.2933 33.9565 24.4749 34.2006 24.6169 34.2941C24.8159 34.4191 25.2821 34.4691 25.538 34.5442C25.7482 34.6002 26.0042 34.6129 26.0612 34.8442C26.0949 34.9815 26.0553 35.1065 25.9418 35.1878C25.8335 35.2688 25.6688 35.3251 25.4868 35.3251C25.2991 35.3251 25.1172 35.2628 25.0262 35.1378C24.9467 35.019 24.9012 34.9065 24.8385 34.7252H24.0823C24.0994 35.1063 24.2929 35.4814 24.5314 35.6939C24.7645 35.9002 25.0773 36 25.475 36C25.8733 36 26.2201 35.925 26.476 35.725C26.7258 35.5251 26.8623 35.1503 26.8623 34.8442C26.8623 34.5817 26.7941 34.3754 26.6862 34.2131C26.4646 33.8943 26.0667 33.807 25.7937 33.763ZM15.9356 35.9004H16.7032V32.4007H15.9356V35.9004ZM15.9356 32.1634H16.7089V31.3197H15.9356V32.1634ZM14.8157 32.8633C14.5315 32.6193 14.1677 32.4507 13.7696 32.4382H13.7298C12.8485 32.4382 12.1323 33.2256 12.1323 34.1881C12.1323 35.1565 12.8485 35.9502 13.7298 35.9502H13.7696C14.1675 35.9442 14.5313 35.7689 14.8102 35.4691L14.8157 35.9007H15.5434V31.3199H14.8157V32.8633ZM13.7753 35.2316H13.7696C13.518 35.2311 13.2768 35.121 13.0988 34.9254C12.9209 34.7298 12.8207 34.4647 12.8203 34.1881C12.8203 33.6194 13.2466 33.1446 13.7696 33.1446H13.7753C14.2927 33.1446 14.7247 33.6132 14.7247 34.1881C14.7247 34.7629 14.2927 35.2316 13.7753 35.2316ZM19.5797 32.8505C19.2957 32.6068 18.9318 32.438 18.5337 32.4257H18.4938C17.6127 32.4257 16.8907 33.2194 16.8907 34.1816C16.8907 35.1503 17.6127 35.944 18.4938 35.944H18.5337C18.9316 35.9315 19.2896 35.7564 19.5742 35.4564V35.8877H20.3018V31.3137H19.5742L19.5797 32.8505ZM18.5339 35.2253C18.0108 35.2253 17.5788 34.7504 17.5788 34.1756C17.5788 33.6067 18.0108 33.1383 18.5339 33.1383C19.0569 33.1383 19.4891 33.6069 19.4891 34.1756C19.4889 34.7504 19.0569 35.2253 18.5339 35.2253ZM11.1089 32.4007V32.732C10.961 32.557 10.8929 32.5009 10.7223 32.4319C10.5688 32.3697 10.3584 32.3132 10.1536 32.3069H10.1197C9.87515 32.3069 9.65924 32.3505 9.46588 32.438C9.2782 32.5257 9.1019 32.663 8.94286 32.8505C8.80068 33.0133 8.68714 33.2129 8.60183 33.4319C8.52644 33.6515 8.4879 33.8843 8.48809 34.1191C8.48809 34.6504 8.64733 35.094 8.96561 35.4376C9.2784 35.7875 9.6763 35.969 10.1538 35.969H10.1595C10.3529 35.969 10.5631 35.9065 10.7337 35.8375C10.9041 35.7687 11.0294 35.7124 11.1089 35.5877V35.9065L11.848 35.9004L11.8423 32.3947L11.1089 32.4007ZM10.1595 35.1753H10.1538C10.0298 35.1757 9.90695 35.1491 9.79232 35.0971C9.67768 35.0451 9.57352 34.9687 9.48583 34.8723C9.39814 34.7759 9.32864 34.6614 9.28133 34.5354C9.23403 34.4094 9.20984 34.2744 9.21016 34.1381C9.21048 33.8631 9.31 33.5995 9.48691 33.405C9.66381 33.2106 9.90365 33.1012 10.1538 33.1008H10.1595C10.6768 33.1008 11.1032 33.5694 11.1032 34.1381C11.1028 34.413 11.0033 34.6767 10.8264 34.8711C10.6495 35.0655 10.4097 35.1749 10.1595 35.1753ZM23.1673 32.3882L23.1728 32.7193C23.0251 32.5507 22.9514 32.4942 22.7864 32.4192C22.6035 32.3483 22.4118 32.3083 22.2179 32.3007H22.1838C21.939 32.3007 21.7231 32.3442 21.53 32.4257C21.3364 32.5134 21.1603 32.657 21.0068 32.8383C20.8591 33.0008 20.7454 33.2006 20.6655 33.4259C20.5878 33.645 20.5474 33.8779 20.5461 34.1131C20.5461 34.6381 20.711 35.0815 21.0297 35.4316C21.3364 35.7752 21.7402 35.9565 22.2179 35.9565C22.4168 35.9565 22.627 35.9004 22.7919 35.8254C22.9625 35.7564 23.0933 35.7002 23.1728 35.5754V35.8942L23.9119 35.8879L23.9007 32.3884L23.1673 32.3882ZM22.2179 35.169C21.6947 35.1628 21.2682 34.7002 21.2682 34.1253C21.2682 33.5567 21.6947 33.0943 22.2179 33.0881C22.7407 33.0881 23.1673 33.5567 23.1673 34.1253C23.1673 34.7004 22.7407 35.169 22.2179 35.169ZM27.5052 30.5385C27.4993 30.5385 27.4936 30.5325 27.4936 30.5325C26.9988 30.5325 26.5954 30.9761 26.5954 31.5197C26.5954 32.0634 26.9988 32.5012 27.4936 32.5012H27.5052C27.9938 32.4947 28.3917 32.0573 28.3917 31.5197C28.3917 30.9821 27.9938 30.5448 27.5052 30.5385ZM27.5052 32.3444C27.4066 32.3446 27.3089 32.3233 27.2178 32.282C27.1267 32.2406 27.044 32.1798 26.9742 32.1032C26.9045 32.0266 26.8492 31.9356 26.8116 31.8355C26.7739 31.7354 26.7545 31.6281 26.7547 31.5197C26.7547 31.0761 27.0898 30.7011 27.5052 30.7073C27.9201 30.7073 28.2553 31.0759 28.2553 31.526C28.2553 31.9758 27.9201 32.3444 27.5052 32.3444Z" fill="white"/>
<path fill-rule="evenodd" clip-rule="evenodd" d="M27.7666 31.682C27.7339 31.6465 27.6977 31.6152 27.6587 31.5885C27.744 31.5758 27.8119 31.5383 27.8519 31.482C27.8915 31.4385 27.9201 31.3697 27.9201 31.2945C27.9201 31.2322 27.8972 31.1694 27.8744 31.1197C27.845 31.076 27.8057 31.0416 27.7605 31.0196C27.7152 31.0009 27.641 30.9949 27.5332 30.9949H27.1182V32.0631H27.3173V31.6133H27.3514C27.3967 31.6133 27.4308 31.6195 27.4534 31.6258C27.4763 31.6323 27.4879 31.6445 27.505 31.6635C27.505 31.6695 27.5104 31.6695 27.5104 31.676C27.533 31.6885 27.5671 31.7448 27.6183 31.826L27.7603 32.0631H27.9934L27.874 31.8571C27.8289 31.7758 27.7891 31.707 27.7666 31.682ZM27.5052 31.4449H27.3175V31.1761H27.5052C27.5618 31.1761 27.6016 31.1761 27.613 31.1824C27.641 31.1843 27.6673 31.1977 27.6867 31.2199C27.7093 31.2384 27.7154 31.2699 27.7154 31.3009C27.7154 31.332 27.7095 31.3699 27.6924 31.3885C27.6758 31.4012 27.6587 31.4197 27.6412 31.4322C27.6187 31.4385 27.5734 31.4385 27.5052 31.4449ZM15.8617 25.8082H9.37509C11.3136 27.1268 13.5822 28.0017 16.1631 28.5891L15.8617 25.8082ZM20.8079 25.8145L20.4212 28.4263C23.0137 27.9014 25.2991 27.0767 27.2834 25.8145H20.8079ZM20.0629 25.802L16.4985 25.808C16.9987 26.9515 17.6357 27.9139 18.3632 28.8326C19.0796 27.8952 19.5571 26.9267 20.0629 25.802ZM29.6541 24.0648L6.96454 24.0521C6.20835 23.3897 5.69671 23.0461 5.08839 22.1649H31.5583C30.9672 22.8775 30.2908 23.521 29.6541 24.0648ZM33.0363 20.0029L3.7125 20.0154C3.32029 19.4155 2.871 18.5721 2.59253 17.9034H34.1567C33.8612 18.6531 33.4629 19.3468 33.0363 20.0029ZM12.0525 15.6162L1.8136 15.6225C0.87562 13.2414 0.284358 10.7856 0 7.73621C5.27606 8.7672 9.34665 11.1482 12.0525 15.6162ZM22.5419 15.635H14.122C13.9344 9.67964 15.4354 3.63681 18.3348 0C21.2797 3.54327 22.8035 9.56087 22.5419 15.635ZM35.0207 15.6225L24.5826 15.6287C27.4649 11.1732 31.6038 8.65491 36.9649 7.76122C36.6298 10.7421 36.0042 13.2727 35.0207 15.6225ZM36.0042 2.56229C35.993 2.55604 35.9817 2.55604 35.9701 2.55604C34.8672 2.55604 33.9576 3.54975 33.9576 4.76202C33.9576 5.97429 34.8674 6.96777 35.9701 6.96777H36.0042C37.1075 6.94924 38 5.96179 38 4.76202C38 3.56203 37.1073 2.58082 36.0042 2.56229ZM36.0042 6.62396C35.0835 6.62396 34.3273 5.78653 34.3273 4.7743C34.3273 3.77434 35.0835 2.93088 36.0042 2.94339C36.9369 2.94339 37.687 3.77456 37.687 4.78055C37.687 5.79903 36.9369 6.62396 36.0042 6.62396Z" fill="white"/>
<path fill-rule="evenodd" clip-rule="evenodd" d="M36.5898 5.13039C36.5195 5.05222 36.4414 4.98302 36.357 4.9241C36.5447 4.89284 36.6922 4.82408 36.7945 4.69281C36.8857 4.58654 36.9369 4.43651 36.9369 4.2617C36.9369 4.11793 36.8912 3.98665 36.8345 3.87413C36.7718 3.77412 36.6751 3.68682 36.5727 3.65557C36.4708 3.60556 36.3002 3.58078 36.0613 3.58078H35.1517V5.98634H35.5783V4.98036H35.6691C35.7714 4.98036 35.8452 4.98639 35.8964 5.00536C35.9305 5.02412 35.9701 5.04912 36.0042 5.08663C36.0101 5.09288 36.0217 5.09913 36.0272 5.10538C36.0613 5.16164 36.1407 5.27416 36.2599 5.4617L36.5725 5.98657H37.1014L36.84 5.52421C36.7377 5.33667 36.6469 5.1929 36.5898 5.13039ZM36.0042 4.59301H35.5781V3.99938H36.0042C36.1295 3.99938 36.2148 3.99938 36.2431 4.00563C36.3229 4.01188 36.3796 4.05564 36.4137 4.0994C36.4594 4.13668 36.4708 4.21192 36.4708 4.28671C36.4708 4.34922 36.4592 4.42423 36.4308 4.47424C36.3966 4.51175 36.357 4.54926 36.3001 4.56801C36.2544 4.58051 36.1637 4.58676 36.0042 4.59301Z" fill="white"/>
</svg>
