<svg width="140" height="10" viewBox="0 0 140 10" fill="none" xmlns="http://www.w3.org/2000/svg">
<path fill-rule="evenodd" clip-rule="evenodd" d="M0 9.41435H1.84823V0.367375H0V0.00149906H6.63285C8.04676 0.00149906 9.73251 0.053339 11.0363 0.524395C11.9065 0.89027 12.3955 1.67462 12.3955 2.40712C12.3955 3.13962 11.9073 3.55733 11.1995 4.02839C10.8191 4.28983 10.6019 4.34168 10.0036 4.4987C10.8191 4.60312 11.3628 4.76014 12.1236 5.1786C12.9392 5.70075 13.2657 6.43476 13.2657 7.16576C13.2657 8.00194 12.6673 8.78703 11.58 9.1529C9.94889 9.72839 8.04598 9.78097 6.30555 9.78097H0V9.41435ZM5.00178 9.41435H6.36101C7.50229 9.41435 8.42718 9.20475 9.13414 8.99439C9.73251 8.68185 10.3309 8.1582 10.3309 7.16425C10.3309 6.01404 10.0044 5.23044 8.69903 4.81123C8.04676 4.65496 5.05647 4.7068 5.00257 4.7068L5.00178 9.41435ZM5.00178 4.28909C6.41569 4.28909 7.9374 4.34093 8.53577 4.13207C9.40598 3.76619 9.73251 3.39956 9.73251 2.35378C9.67782 1.46501 9.3513 0.993949 8.80761 0.732502C8.15612 0.419216 7.12264 0.366626 6.03526 0.366626H5.00178V4.28909ZM53.4995 9.41435H55.3477V0.367375H53.4995V0.00149906H60.1324C61.5463 0.00149906 63.2312 0.053339 64.5366 0.524395C65.4607 0.89027 65.8958 1.67462 65.8958 2.40712C65.8958 3.13962 65.4607 3.55733 64.6998 4.02839C64.3194 4.28983 64.1014 4.34168 63.5038 4.4987C64.3194 4.60312 64.8631 4.76014 65.6786 5.1786C66.4402 5.70075 66.766 6.43476 66.766 7.16576C66.766 8.00194 66.1676 8.78703 65.1349 9.1529C63.5046 9.72839 61.547 9.78097 59.8066 9.78097H53.5003L53.4995 9.41435ZM58.556 9.41435H59.8605C61.0565 9.41435 61.9267 9.20475 62.6336 8.99439C63.2859 8.68185 63.8296 8.1582 63.8296 7.16425C63.8296 6.01404 63.5578 5.23044 62.1985 4.81123C61.5463 4.65496 58.556 4.7068 58.556 4.7068V9.41435ZM58.556 4.28909C59.9699 4.28909 61.4377 4.34093 62.036 4.13207C62.9055 3.76619 63.232 3.39956 63.232 2.35378C63.232 1.46501 62.8516 0.993949 62.3079 0.732502C61.6556 0.419216 60.6221 0.366626 59.5894 0.366626H58.5567L58.556 4.28909ZM18.3769 0.366626H16.256V0.000749529H23.2701V0.366626H21.2039V7.21685C21.2039 7.89601 21.5296 8.31447 22.128 8.73293C22.6725 9.20399 23.3786 9.4136 24.7379 9.4136C26.3143 9.4136 27.4563 9.09956 28.1086 8.52408C28.8155 8.00043 29.1413 7.32053 29.0866 6.64137V0.365876H27.0751V0H31.9683V0.365876H29.9021V6.69245C29.9021 7.63456 29.467 8.52408 28.5429 9.09881C27.5649 9.67429 26.4767 9.98833 24.6832 9.98833C22.9974 9.98833 21.0398 9.77872 19.9532 9.30767C18.9205 8.8892 18.3769 8.21005 18.3769 7.32052V0.366626ZM36.917 0.367375H34.8508V0.00149906H42.6796C44.3646 0.0533377 45.2348 0.00150395 46.4308 0.41997C47.2463 0.733256 47.79 1.36133 47.79 2.30269C47.79 4.18541 45.9956 4.39427 44.7458 4.65571C45.8332 4.70755 46.4315 4.91716 47.1377 5.1786C47.8447 5.54373 48.1704 6.11922 48.3337 6.48585C48.4969 7.00799 48.4422 7.63606 48.4422 8.15896C48.5508 9.10107 49.0406 9.51953 49.9647 9.4151C50.2366 9.36251 50.3998 9.25808 50.617 9.10107L50.8896 9.51953C50.3666 9.87224 49.7321 10.0388 49.0953 9.99059C48.0618 9.99059 47.2471 9.83357 46.594 9.46694C45.9417 9.10182 45.5613 8.57742 45.3981 7.84567C45.2895 7.2191 45.3442 6.64362 45.1262 6.01554C44.7458 5.07494 43.3858 4.86532 42.5163 4.86532H40.0151V9.41585H42.1359V9.78097H34.7422V9.41585H36.917V0.367375ZM40.0158 4.39351H42.7343C44.0396 4.39351 44.8544 3.87062 44.8544 2.30194C44.8544 1.04729 43.767 0.367375 42.6257 0.367375H40.0151L40.0158 4.39351ZM108.794 0.367375H106.728V0.00149906H114.556C116.242 0.0533377 117.111 0.00150395 118.252 0.41997C119.122 0.733256 119.667 1.36133 119.667 2.30269C119.667 4.18541 117.873 4.39427 116.568 4.65571C117.71 4.70755 118.308 4.91716 118.96 5.1786C119.72 5.54373 120.047 6.11922 120.156 6.48585C120.373 7.00799 120.318 7.63606 120.318 8.15896C120.372 9.10107 120.916 9.51953 121.84 9.4151C122.112 9.36251 122.275 9.25808 122.439 9.10107L122.711 9.51953C122.222 9.88465 121.569 10.0417 120.916 9.99059C119.938 9.99059 119.122 9.83357 118.47 9.46694C117.817 9.10182 117.382 8.57742 117.274 7.84567C117.164 7.2191 117.22 6.64362 116.948 6.01554C116.621 5.07494 115.262 4.86532 114.337 4.86532H111.891V9.41585H114.012V9.78097H106.617V9.41585H108.794V0.367375ZM111.893 4.39351H114.557C115.861 4.39351 116.731 3.87062 116.731 2.30194C116.731 1.04729 115.644 0.367375 114.448 0.367375H111.893V4.39351ZM90.254 0.367375H88.1878V0.00149906H96.0158C97.7571 0.0533377 98.571 0.00150395 99.7678 0.41997C100.584 0.733256 101.182 1.36133 101.182 2.30269C101.182 4.18541 99.3881 4.39427 98.082 4.65571C99.1702 4.70755 99.7678 4.91716 100.474 5.1786C101.182 5.54373 101.507 6.11922 101.67 6.48585C101.888 7.00799 101.78 7.63606 101.78 8.15896C101.889 9.10107 102.432 9.51953 103.301 9.4151C103.574 9.36251 103.736 9.25808 103.954 9.10107L104.226 9.51953C103.736 9.88465 103.03 10.0417 102.432 9.99059C101.399 9.99059 100.584 9.83357 99.931 9.46694C99.278 9.10182 98.8983 8.57742 98.7351 7.84567C98.6265 7.2191 98.6804 6.64362 98.4632 6.01554C98.082 5.07494 96.722 4.86532 95.8526 4.86532H93.3521V9.41585H95.5261V9.78097H88.0777V9.41585H90.254V0.367375ZM96.0705 4.39351C97.3751 4.39351 98.1914 3.87062 98.1914 2.30194C98.1914 1.04729 97.1032 0.367375 95.9619 0.367375H93.3513V4.39351H96.0705ZM70.3 9.41435H72.3669V0.367375H70.3V0.00149906H83.1852V2.93002H82.697C82.4791 2.14567 81.9354 1.15172 81.2823 0.733252C80.8472 0.471804 80.1411 0.367375 78.9451 0.367375H75.465V4.4987C76.2813 4.4987 77.3679 4.55053 78.0741 4.23724C78.6186 3.9758 78.999 3.40032 79.1084 2.773H79.6513V6.69395H79.1084C78.9982 5.96295 78.5639 5.49189 78.0202 5.2312C77.4773 5.02159 76.4422 5.02159 75.465 5.02159V9.4151H79.3802C81.0644 9.4151 81.6628 9.2055 82.3158 8.83962C82.9142 8.41965 83.5118 7.37537 83.675 6.43476H84.1101V9.78022H70.3V9.41435ZM127.822 9.41435H130.214V5.17785L125.43 0.367375H123.419V0.00149906H131.247V0.367375H128.855L132.825 4.65571L136.957 0.367375H134.184V0.00149906H140V0.367375H137.826L133.259 5.17785V9.41435H135.651V9.77947H127.822L127.822 9.41435Z" fill="white"/>
</svg>
