<svg width="66" height="44" viewBox="0 0 66 44" fill="none" xmlns="http://www.w3.org/2000/svg">
<path d="M4.72097 43.9966C4.69291 43.9933 4.59782 43.9834 4.50966 43.9745C3.70484 43.8931 2.84571 43.5617 2.17036 43.0722C1.1578 42.3381 0.444271 41.2693 0.146649 40.0408C-0.0115105 39.388 -0.0429442 38.6567 0.0582063 37.9838C0.329422 36.1799 1.51331 34.6347 3.1556 33.9411C3.56547 33.7681 3.97222 33.6586 4.45137 33.5925C4.71697 33.5558 5.36382 33.5556 5.63177 33.5922C6.20001 33.6696 6.68165 33.8138 7.1765 34.0549C7.721 34.3202 8.09783 34.5933 8.55394 35.0534C8.95269 35.4556 9.19891 35.7903 9.48438 36.3184L9.5451 36.4307L9.32989 36.591C9.03342 36.8118 8.33799 37.3114 8.1115 37.4663L7.92438 37.5943L7.84742 37.4259C7.75226 37.2176 7.68451 37.0942 7.5748 36.9292C7.13645 36.2701 6.43743 35.7992 5.67549 35.65C5.27232 35.571 4.77596 35.5798 4.3785 35.673C3.96113 35.7708 3.5079 35.9903 3.16167 36.2622C3.0221 36.3719 2.76524 36.6283 2.65223 36.771C2.04242 37.5404 1.81781 38.5206 2.02695 39.4997C2.09936 39.8386 2.28678 40.2815 2.48231 40.5757C2.99979 41.3542 3.79299 41.8529 4.69144 41.9647C4.85027 41.9845 5.23287 41.9845 5.3917 41.9647C6.18736 41.8657 6.92255 41.4494 7.42492 40.8135C7.57287 40.6263 7.67597 40.4642 7.79356 40.2339C7.84509 40.1331 7.89155 40.0505 7.89681 40.0505C7.90207 40.0505 8.26839 40.3108 8.71085 40.629L9.51533 41.2074L9.43381 41.3627C9.26463 41.6848 8.9736 42.0898 8.70253 42.3802C8.24071 42.875 7.79089 43.2113 7.20563 43.4992C6.70014 43.7478 6.16451 43.9064 5.59532 43.976C5.46771 43.9916 4.8117 44.007 4.72097 43.9966ZM11.5994 33.6602H13.5521V37.2992H18.6527V33.6602H20.6054V43.7997H18.6527V39.3389H13.5521V43.7997H11.5994V33.6602ZM22.5783 42.9009C22.796 42.4066 23.8002 40.1252 24.81 37.8312L26.6459 33.6602L29.3856 33.6605L31.6049 38.6677C32.8255 41.4217 33.8367 43.703 33.852 43.7373L33.8799 43.7997H31.5417L30.6388 41.7895L25.4129 41.7967L24.5202 43.7997H22.1825L22.5783 42.9009ZM29.8129 39.744C29.8047 39.7082 28.0306 35.7153 28.023 35.7154C28.0176 35.7155 26.3328 39.6748 26.3058 39.7507C26.3029 39.7591 26.9766 39.7644 28.0593 39.7644C29.555 39.7644 29.8169 39.7614 29.8129 39.744ZM35.4552 33.6602L38.2022 33.6608L42.5012 39.7405L42.5085 33.6602H44.4758V43.7999L42.8971 43.7923L40.1708 39.9814C38.6713 37.8854 37.4395 36.1702 37.4335 36.1699C37.4275 36.1696 37.4226 37.8862 37.4226 39.9845V43.7997H35.4552V33.6602ZM48.0316 33.6602H55.0703V35.6998H49.999V37.7248H54.6914V39.7644H49.999V41.7894H55.799V43.7997H48.0316V33.6602ZM58.5533 33.6602H60.5206V41.7894H66V43.7997H58.5533V33.6602ZM24.8394 31.0814C22.7374 30.9835 20.3968 30.3409 18.5098 29.3436C17.0611 28.578 15.913 27.7213 14.7102 26.5083C13.7681 25.5583 13.0731 24.6832 12.4848 23.7063L12.2273 23.2786L12.5926 23.0835C13.3046 22.7033 16.5501 21.0299 16.5756 21.0299C16.5898 21.0299 16.7239 21.2137 16.8735 21.4383C18.5649 23.9766 21.2109 25.6279 24.3073 26.0773C24.8486 26.1559 26.4764 26.1433 27.0659 26.0561C27.7218 25.959 28.5085 25.7789 29.0082 25.6114C29.0407 25.6005 28.9786 25.4989 28.8356 25.3293C27.7288 24.0156 26.7199 22.2125 26.1523 20.5339C25.1255 17.4975 25.0524 14.2382 25.9424 11.1759C26.4951 9.27417 27.4462 7.42834 28.6508 5.91992C28.8303 5.69519 28.9771 5.4969 28.9771 5.47931C28.9771 5.41946 28.0368 5.16744 27.4205 5.06211C26.4684 4.89939 24.9778 4.87922 24.1173 5.0174C22.6694 5.24992 21.1997 5.79594 20.0513 6.52804C18.7716 7.34389 17.7044 8.39234 16.8528 9.67045L16.4768 10.2348L15.9981 9.98176C15.7349 9.84261 14.757 9.33231 13.825 8.8478C12.893 8.36329 12.1276 7.96428 12.124 7.96114C12.1092 7.94798 12.6927 7.01355 12.9328 6.66584C13.6621 5.61011 14.9569 4.21195 15.9136 3.4473C18.4151 1.44787 21.1961 0.32181 24.327 0.0405894C24.9078 -0.0115901 26.348 -0.012045 26.9082 0.039753C28.896 0.223497 30.5999 0.708799 32.3602 1.59249L33.2015 2.01483L33.4833 1.85335C33.9384 1.59258 34.747 1.21633 35.3611 0.979557C37.0842 0.315266 38.8195 -0.000937029 40.7367 2.08557e-06C42.0756 0.000662401 43.1925 0.133122 44.405 0.435032C47.1443 1.11709 49.4804 2.42519 51.4931 4.40407C52.5843 5.47689 53.4395 6.57226 54.1299 7.78158L54.2346 7.96487L52.5316 8.8495C51.5949 9.33606 50.6151 9.84687 50.3542 9.98461L49.8798 10.2351L49.5213 9.69045C47.7521 7.00314 44.8581 5.25364 41.6904 4.95646C40.7527 4.86848 39.3602 4.94949 38.5138 5.14129C38.0781 5.24 37.3709 5.44345 37.3711 5.47001C37.3712 5.48389 37.4869 5.63809 37.6282 5.8127C39.4435 8.05541 40.5769 10.7892 40.9431 13.8082C41.0305 14.5288 41.0422 16.3684 40.9639 17.0818C40.6331 20.0942 39.5019 22.8743 37.6962 25.1123C37.2868 25.6196 37.3043 25.5845 37.4356 25.6356C37.4976 25.6597 37.7877 25.7405 38.0803 25.8152C39.5674 26.1946 41.1682 26.2482 42.6713 25.9689C45.405 25.461 47.8671 23.833 49.4507 21.4863C49.598 21.268 49.731 21.0748 49.7463 21.0569C49.7615 21.039 50.1266 21.2023 50.5575 21.4198C51.411 21.8506 54.0846 23.2437 54.1133 23.2726C54.1611 23.3207 53.309 24.5943 52.7864 25.2558C52.2917 25.8821 50.9949 27.1864 50.3754 27.6807C48.1365 29.4673 45.6239 30.5597 42.8563 30.9497C39.6787 31.3975 36.3134 30.7978 33.5752 29.2957L33.1882 29.0835L32.7083 29.3392C30.3301 30.6061 27.6023 31.2101 24.8394 31.0814ZM33.7172 22.2799C35.0424 20.6281 35.8693 18.6243 36.0731 16.571C36.1415 15.8819 36.1008 14.4781 35.9943 13.8506C35.7012 12.1239 35.074 10.6439 34.0623 9.29141C33.8718 9.03675 33.5943 8.69628 33.4458 8.53487L33.1756 8.24135L32.925 8.51501C32.5946 8.87574 32.044 9.61168 31.7665 10.0635C30.3574 12.3577 29.8974 15.1763 30.4941 17.8589C30.8696 19.547 31.7329 21.2476 32.8964 22.5908L33.1643 22.9001L33.2816 22.7884C33.346 22.7269 33.542 22.4981 33.7172 22.2799Z" fill="white"/>
</svg>
