<svg width="46" height="47" viewBox="0 0 46 47" fill="none" xmlns="http://www.w3.org/2000/svg">
<path d="M9.18299 6.58V8.7037C8.40892 9.38259 6.55927 9.78644 5.18218 9.78644C3.80685 9.78644 0 8.93696 0 4.94544C0 0.953926 3.62347 0.094 5.0852 0.094C6.5487 0.094 8.1074 0.358593 9.01019 0.953926V2.82174C9.01019 3.055 8.68751 3.03411 8.68751 2.82174C8.66635 2.50319 7.80589 0.593593 5.65473 0.63537C3.33253 0.68237 1.76325 2.48404 1.76325 4.86015C1.76325 7.23626 3.28845 9.27641 5.59125 9.212C6.33887 9.19111 7.11822 8.95785 7.49556 8.648L7.50437 6.58C7.50437 5.98641 7.13938 5.77404 6.77439 5.77404C6.53635 5.77404 6.53635 5.43459 6.77439 5.43459H9.91297C10.1492 5.43459 10.1492 5.79493 9.91297 5.77404C9.54974 5.77404 9.18299 5.98641 9.18299 6.58ZM30.3437 2.82348C30.3437 3.05674 30.1074 3.03585 30.1074 2.82348C30.0845 2.50493 29.2258 0.530926 27.0746 0.574444C24.7524 0.619704 23.1814 2.48578 23.1814 4.86189C23.1814 7.238 24.6872 9.34081 26.9882 9.27815C29.2893 9.21374 30.386 6.9647 30.4724 6.66704C30.5588 6.36937 30.7087 6.41289 30.7087 6.64615V8.38689C29.7636 9.06578 27.9774 9.78819 26.6021 9.78819C25.2268 9.78819 21.4199 8.9387 21.4199 4.94719C21.4199 0.953926 25.0328 0 26.4945 0C27.958 0 29.4409 0.360333 30.3455 0.953926L30.3437 2.82348ZM45.7421 0.233259C46.086 0.233259 46.086 0.551815 45.7421 0.551815C45.3754 0.551815 45.0104 0.764185 45.0104 1.35778V8.42693C45.0104 9.02052 45.3754 9.23289 45.7421 9.23289C46.086 9.23289 46.086 9.65763 45.7421 9.65763H42.5806C42.2368 9.65763 42.2368 9.23289 42.5806 9.23289C42.9474 9.23289 43.3124 9.02052 43.3124 8.42693V1.35778C43.3124 0.762444 42.9474 0.551815 42.5806 0.551815C42.2368 0.551815 42.2368 0.233259 42.5806 0.233259H45.7421ZM20.6018 0.233259C20.9456 0.233259 20.9456 0.551815 20.6018 0.551815C20.2368 0.551815 19.8718 0.764185 19.8718 1.35778L19.8295 5.99685C19.8295 8.21804 18.0045 9.85085 15.7528 9.85085C13.5012 9.85085 11.7432 8.21804 11.7432 5.99685V1.35778C11.7432 0.762444 11.3765 0.551815 11.0115 0.551815C10.6676 0.551815 10.6676 0.233259 11.0115 0.233259H14.1941C14.538 0.233259 14.538 0.551815 14.1941 0.551815C13.8274 0.551815 13.4624 0.764185 13.4624 1.35778L13.4589 6.53822C13.4589 8.10489 14.7566 9.37563 16.3435 9.37563C17.9304 9.37563 19.2176 7.78633 19.2176 6.22141L19.14 1.35778C19.14 0.762444 18.775 0.551815 18.4083 0.551815C18.0662 0.551815 18.0662 0.233259 18.4083 0.233259H20.6018ZM23.5446 21.0316C25.4581 20.0986 27.5642 19.6149 29.6984 19.6181C31.7878 19.6185 33.8501 20.085 35.7312 20.9827C37.6124 21.8805 39.2637 23.1862 40.5619 24.8025C41.8601 26.4188 42.7716 28.3037 43.2283 30.3166C43.685 32.3294 43.6751 34.4182 43.1993 36.4267C42.7235 38.4352 41.7942 40.3117 40.4807 41.9159C39.1672 43.52 37.5035 44.8104 35.6139 45.6907C33.7243 46.571 31.6576 47.0184 29.5683 46.9994C27.479 46.9805 25.421 46.4957 23.5481 45.5813C21.6756 46.4943 19.6183 46.9779 17.5298 46.996C15.4414 47.0141 13.3758 46.5662 11.4873 45.6858C9.59878 44.8054 7.93609 43.5152 6.62338 41.9116C5.31067 40.3079 4.38185 38.4322 3.90626 36.4246C3.43068 34.4169 3.42062 32.3291 3.87684 30.317C4.33306 28.305 5.24376 26.4207 6.54096 24.8048C7.83816 23.1889 9.48835 21.8831 11.3683 20.985C13.2483 20.0869 15.3094 19.6197 17.3979 19.6181C19.6091 19.6181 21.6897 20.1264 23.5446 21.0316ZM26.3411 22.8298C28.4893 24.6022 30.0357 26.9818 30.7722 29.6483H27.8981C27.091 27.3969 25.5627 25.4664 23.5446 24.1493C21.5304 25.4673 20.0049 27.3961 19.1982 29.6448L16.3259 29.6466C17.0716 26.9768 18.6226 24.5944 20.7728 22.8159C19.6793 22.4819 18.5408 22.3141 17.3962 22.318C15.793 22.3196 14.209 22.663 12.7527 23.3249C11.2964 23.9868 10.0021 24.9516 8.95845 26.153C7.9148 27.3545 7.1464 28.7644 6.70584 30.2863C6.26528 31.8081 6.16296 33.4059 6.40589 34.9704C6.64881 36.5349 7.23124 38.0291 8.11332 39.3508C8.9954 40.6725 10.1563 41.7904 11.5166 42.6281C12.8769 43.4658 14.4044 44.0035 15.9947 44.2043C17.5849 44.4052 19.2004 44.2645 20.7305 43.7918C19.3303 42.6241 18.1797 41.1926 17.346 39.5811C16.5122 37.9696 16.012 36.2102 15.8745 34.4057H22.4726V37.137L19.2635 37.1352C20.0872 39.3152 21.5889 41.1817 23.5534 42.4671C25.518 41.1839 27.0175 39.3164 27.8346 37.1352L24.6255 37.137V34.4057H31.2236C31.0779 36.2108 30.5695 37.9691 29.7278 39.578C28.8862 41.1868 27.7283 42.614 26.3217 43.7761C27.9892 44.3 29.7582 44.4284 31.4853 44.1508C33.2124 43.8732 34.8488 43.1975 36.2618 42.1785C37.6748 41.1596 38.8245 39.826 39.6176 38.2862C40.4107 36.7463 40.8249 35.0435 40.8265 33.3161C40.8281 31.5886 40.4171 29.8851 39.6268 28.3438C38.8366 26.8025 37.6893 25.4669 36.2782 24.4454C34.8671 23.4238 33.2319 22.7452 31.5054 22.4645C29.7788 22.1838 28.0095 22.3089 26.3411 22.8298ZM40.8597 2.82348C40.8597 3.05674 40.6234 3.03585 40.6234 2.82348C40.6023 2.50493 39.7418 0.530926 37.5906 0.574444C35.2684 0.619704 33.6974 2.48578 33.6974 4.86189C33.6974 7.238 35.2032 9.34081 37.5042 9.27815C39.8053 9.21548 40.902 6.9647 40.9884 6.66704C41.0748 6.36937 41.2265 6.41289 41.2265 6.64615V8.38689C40.2796 9.06578 38.4952 9.78819 37.1181 9.78819C35.7428 9.78819 31.9359 8.9387 31.9359 4.94719C31.9359 0.953926 35.5488 0 37.0123 0C38.474 0 39.9587 0.360333 40.8615 0.953926L40.8597 2.82348Z" fill="white"/>
</svg>
