<svg width="67" height="32" viewBox="0 0 67 32" fill="none" xmlns="http://www.w3.org/2000/svg">
<path fill-rule="evenodd" clip-rule="evenodd" d="M43.4437 1.79857V0H36.4971V9.87516H43.4437V8.24627H38.4301V5.56538H42.8207V3.80075H38.4301V1.79857H43.4437ZM41.5107 10.8932V14.694H37.7093V10.8932H35.7445V20.7349H37.7093V16.3229H41.5107V20.7349H43.4437V10.8932H41.5107ZM43.4437 23.5167V21.753H36.4971V31.7629H43.4437V29.9653H38.4301V27.3179H42.8207V25.6895H38.4301V23.5167H43.4437ZM35.3836 0H33.4506V3.80075H29.6502V0H27.7172V9.87516H29.6502V5.46358H33.4506V9.87516H35.3836V0ZM19.3955 0V1.79857H22.3441V9.87516H24.2771V1.79857H27.2257V0H19.3955ZM13.3016 10.6217C10.2547 10.6217 8.64933 12.4203 8.64933 15.8138C8.64933 19.377 10.2547 21.1417 13.3016 21.1417C16.3485 21.1417 17.9211 19.377 17.9211 15.8138C17.9211 12.4203 16.3485 10.6217 13.3016 10.6217ZM10.7461 15.8138C10.7461 13.5402 11.598 12.4203 13.3016 12.4203C15.1363 12.4203 15.9882 13.5402 15.9882 15.8138C15.9882 18.2237 15.1363 19.377 13.3016 19.377C11.598 19.377 10.7461 18.2237 10.7461 15.8138ZM5.86451 10.8932V17.8499L2.06404 10.8932H0V20.7349H1.83471V13.8116L5.73346 20.7349H7.7975V10.8932H5.86451ZM14.8742 25.8247V23.5167H19.7559V21.753H12.9412V31.7629H14.8742V27.5894H19.1661V25.8247H14.8742ZM35.0237 12.6579V10.8932H27.2257V12.6579H30.1416V20.7349H32.1074V12.6579H35.0237ZM22.9338 16.9681C23.5563 16.9681 24.0478 17.0694 24.2771 17.3409L24.6375 20.7349H26.8326V20.4974C26.6032 20.3611 26.4722 19.7508 26.4722 18.5965C26.4722 17.2056 25.9808 16.4586 25.26 16.0853C26.2429 15.6781 26.7343 14.9315 26.7343 13.6759C26.7343 11.9113 25.7514 10.8932 23.6874 10.8932H18.904V20.7349H20.8698V16.9681H22.9338ZM20.8698 15.3048V12.6579H23.2942C24.2771 12.6579 24.7685 13.0311 24.7685 13.9135C24.7685 14.7958 24.2771 15.3048 23.1959 15.3048H20.8698ZM24.2771 21.753H21.9509L18.5436 31.7629H20.6077L21.3612 29.5915H24.8996L25.4893 31.7629H27.5861L24.2771 21.753ZM23.0649 24.0257L24.2771 27.9631H21.8527L23.0649 24.0257ZM33.8115 25.0437H35.7445C35.6457 24.1619 35.3836 23.4153 34.7934 22.7701C33.9421 22.0235 32.9592 21.5145 31.6159 21.5145C30.2727 21.5145 29.2898 22.0235 28.438 22.9063C27.7172 23.7881 27.2257 25.0437 27.2257 26.707C27.2257 30.2363 28.6673 32 31.4849 32C33.9421 32 35.2849 30.7444 35.7445 28.3355H33.8115C33.5494 29.4888 32.6971 30.1001 31.6159 30.1001C30.0106 30.1001 29.2898 28.9807 29.2898 26.8084C29.2898 24.4334 30.0106 23.2791 31.6159 23.2791C32.6971 23.2791 33.32 23.9244 33.8115 25.0437ZM9.53392 31.6277C9.86155 31.6277 10.1236 31.4914 10.3207 31.3222C10.4845 31.1186 10.6151 30.8471 10.6151 30.4743C10.6151 30.0666 10.484 29.7952 10.3207 29.6255C10.1241 29.4563 9.862 29.354 9.53392 29.354H9.50116C9.10801 29.354 8.84591 29.4563 8.68209 29.6255C8.51873 29.7947 8.41999 30.0666 8.41999 30.4743V30.5073C8.41999 30.8471 8.51828 31.1186 8.68209 31.3222C8.84591 31.4914 9.10846 31.6277 9.50116 31.6277H9.53392ZM9.50116 31.8991C9.04248 31.8991 8.71486 31.7299 8.48552 31.4914C8.25618 31.2539 8.15789 30.915 8.15789 30.5073V30.4743C8.15789 29.9983 8.25618 29.6594 8.48552 29.4223C8.71486 29.1848 9.04248 29.0825 9.50116 29.0825H9.53392C9.92707 29.0825 10.2547 29.1848 10.484 29.4223C10.7134 29.6599 10.8772 29.9988 10.8772 30.4743C10.8772 30.9155 10.7134 31.2539 10.484 31.4914C10.3598 31.6214 10.2117 31.7243 10.0486 31.7943C9.88546 31.8643 9.7105 31.9 9.53392 31.8991H9.50116ZM9.63221 30.3381H9.66497C9.79602 30.3381 9.86155 30.2698 9.86155 30.1006V30.0666C9.86155 30.0666 9.82878 30.0666 9.82878 30.0327C9.79602 29.9988 9.7305 29.9988 9.63221 29.9988H9.27182V30.3386L9.63221 30.3381ZM9.86155 30.5757L10.1236 30.9155C10.1564 30.9829 10.1236 31.0508 10.0909 31.0847C10.0254 31.153 9.92707 31.1186 9.89431 31.0847L9.56668 30.6096H9.27182V30.9824C9.27182 31.0508 9.20629 31.1186 9.14077 31.1186C9.07524 31.1186 9.00972 31.0503 9.00972 30.9824V29.863C9.00972 29.7947 9.07524 29.7278 9.14077 29.7278H9.66497C9.79602 29.7278 9.92707 29.7607 9.9926 29.8291C10.0254 29.863 10.0581 29.863 10.0581 29.8974C10.1236 29.9658 10.1236 30.0327 10.1236 30.101C10.1236 30.3721 10.0581 30.5073 9.86155 30.5757ZM44.7865 0C50.8808 0 56.1551 2.3076 60.4143 6.71918C64.8045 11.2665 67 16.6961 67 23.0416V31.7629H58.0886V22.7701C58.0886 19.2418 56.8764 16.1871 54.4192 13.6759C53.829 13.0311 53.2069 12.5221 52.4862 12.0131C50.5204 10.6217 48.1943 10.0109 45.7698 10.0109H44.7869V0H44.7865ZM57.2358 31.7629H50.2902V24.8062C50.2902 23.6529 49.9302 22.7701 49.1767 22.0235C48.4559 21.2439 47.473 20.8702 46.4901 20.8702H44.7865V10.8932H45.7694C48.3244 10.8932 50.5195 11.6398 52.4857 13.1669C52.9771 13.4044 53.4686 13.9135 53.8285 14.2867C56.1551 16.6966 57.2358 19.4793 57.2358 22.7706V31.7629ZM49.4388 31.7629H44.786V21.753H46.4901C47.2437 21.753 47.9645 22.0235 48.5865 22.6348C49.0779 23.1438 49.4388 23.9244 49.4388 24.8062V31.7629Z" fill="white"/>
</svg>
