<svg width="69" height="16" viewBox="0 0 69 16" fill="none" xmlns="http://www.w3.org/2000/svg">
<path d="M13.6063 13.4477C13.6063 14.5262 12.701 15.4017 12.0193 15.4017H4.31095L14.0064 0H1.04324V2.55232H1.70837C1.70837 1.47376 2.40938 0.601029 3.09384 0.601029H9.75345L0 16H14.0644V13.4477H13.6063Z" fill="white"/>
<path d="M30.4278 14.754L22.9264 0L16.0515 14.765C15.9301 15.0889 15.2677 15.4978 14.3293 15.4978V15.9973H17.989V15.4978C17.31 15.4978 16.5814 15.1629 16.758 14.7623L18.4112 11.1973H24.7534L26.5557 14.754C26.7599 15.1136 25.8464 15.5005 24.9052 15.5005V16H32.5225L32.5253 15.5005C31.3717 15.4978 30.6679 15.141 30.4278 14.754ZM18.6872 10.6209L21.4305 4.63259L24.494 10.6209H18.6872Z" fill="white"/>
<path d="M33.3974 0.617496C34.5124 0.617496 35.4342 0.902916 35.4342 1.24871C35.4342 3.99314 35.4287 14.7376 35.4342 14.7376C35.4342 15.1053 34.5262 15.5142 33.4085 15.5142L33.4057 15.9973H40.8629V15.5472C39.7562 15.5472 38.8592 15.1081 38.8592 14.7403V0.483019H41.0092C43.0791 0.483019 44.7571 2.1928 44.7571 4.1331C44.7571 6.07341 43.0791 7.64871 41.0064 7.64871H39.5189C39.5189 7.64871 44.5584 15.237 44.5667 15.237C44.7654 15.5252 44.8648 16 44.8648 16H50.299V15.5499C49.253 15.5499 48.7065 15.119 48.4029 14.7403L43.5511 8.4446C45.8804 8.29091 47.6826 6.41921 47.6826 4.19623C47.6826 1.87444 45.6762 0 43.2006 0H33.3974V0.617496Z" fill="white"/>
<path d="M66.9025 14.754L59.4011 0L52.5262 14.765C52.4048 15.0889 51.7452 15.5142 50.804 15.5142V15.9973H54.4637V15.5472C53.7847 15.5472 53.0589 15.1629 53.2327 14.7623L54.8859 11.1973H61.2281L63.0304 14.754C63.2374 15.1136 62.3211 15.517 61.3799 15.517V16H68.9972L69 15.5334C67.8464 15.5334 67.1426 15.141 66.9025 14.754ZM55.1592 10.6209L57.9025 4.63259L60.966 10.6209H55.1592Z" fill="white"/>
</svg>
