<svg width="360" height="254" viewBox="0 0 360 254" fill="none" xmlns="http://www.w3.org/2000/svg">
<path d="M157.534 31.3524C157.932 33.4322 158.331 35.5121 158.773 37.8231C160.583 58.557 152.689 72.5166 141.108 84.7832C151.702 84.9206 160.743 88.2285 168.989 92.4063C170.645 93.528 171.981 94.2317 173.405 95.3976C181.498 101.281 187.671 109.686 190.9 121.527C192.015 121.075 193.361 120.579 194.475 120.127C205.476 116.115 214.105 113.513 220.041 111.903C227.137 110.073 230.579 107.98 231.021 110.291C231.199 111.215 230.868 111.997 229.941 112.173C229.941 112.173 226.741 113.022 220.804 114.632C214.868 116.242 206.283 119.075 195.47 122.812C194.124 123.308 192.733 123.573 191.663 124.256L192.726 129.802C195.14 144.912 190.997 158.396 186.092 169.152C175.014 192.82 156.759 211.628 135.523 227.41C124.999 235.164 114.253 241.762 102.734 246.831C97.2507 249.552 91.1709 251.669 85.2344 253.279C74.1997 255.86 65.4457 251.539 63.6957 239.896C62.2999 230.102 66.169 221.46 69.5641 214.106C73.8081 204.914 79.708 196.844 85.7408 189.467C82.5142 161.338 80.2588 133.263 79.3834 106.123L78.9926 97.8143C78.6407 79.6769 78.7966 61.6824 79.4941 45.2614C79.8013 41.8494 80.0981 39.6371 80.3506 37.1937C80.6474 34.9814 84.5322 35.1994 84.0479 37.687C80.7024 55.331 81.6194 77.6723 82.0937 97.7026L82.297 106.287C83.2817 131.49 84.8627 157.297 87.7352 183.578C87.7248 184.777 87.9461 185.933 88.1232 186.857C95.2261 178.797 102.782 171.848 110.471 165.593C125.848 153.082 141.614 143.851 156.067 136.546C167.034 131.104 176.049 126.752 187.281 122.695C183.766 111.868 178.608 103.748 170.835 98.2824C161.274 91.0017 149.177 88.0366 137.192 88.1641C132.526 92.646 127.352 96.985 121.538 100.488C115.349 104.541 108.509 108.958 99.5261 109.712C98.5992 109.888 97.6723 110.065 96.9328 109.966C95.0789 110.319 93.6546 109.153 92.8813 107.624C92.3943 105.082 93.7951 103.617 94.9642 102.197C95.9458 101.052 97.3909 99.8185 98.6485 98.8603C107.871 91.8337 119.444 85.7963 134.906 85.0067C135.369 84.9184 136.064 84.7859 136.572 84.9287C147.26 74.2694 157.097 60.4189 156.006 42.1829C156.204 40.708 155.938 39.3214 155.672 37.9348C155.318 36.086 154.92 34.0062 154.566 32.1574L154.344 31.0019L153.935 30.1216C153.714 28.9661 152.985 27.6679 152.532 26.5565C145.759 12.5167 128.65 5.95544 115.108 4.22377C98.7064 1.36004 80.9279 2.59119 62.3241 8.29113C34.2089 17.0007 14.6289 33.9051 5.16976 52.2348C4.13351 54.3484 3.60499 56.6049 1.2095 55.3845C0.149757 54.8678 -0.303317 53.7565 0.214808 52.6997L0.17054 52.4686C13.6211 27.3902 44.3112 4.53677 86.7759 0.518968C108.262 -1.41853 130.767 1.95921 144.556 12.5064C149.569 16.1026 153.599 20.8439 156.229 27.0498C156.406 27.9742 156.771 28.6233 156.904 29.3166L157.312 30.1969L157.534 31.3524ZM99.1824 106.663C107.757 105.03 113.615 101.758 119.848 97.9355C124.129 95.2038 128.321 92.0099 132.237 88.629C118.111 90.1223 109.462 95.1236 100.846 101.556C99.401 102.789 97.0733 104.43 96.2245 106.269C96.2688 106.5 96.2688 106.5 96.2688 106.5C96.2688 106.5 96.7765 106.642 97.0082 106.598C97.7477 106.697 98.4872 106.796 99.1824 106.663ZM92.4227 219.333C92.855 222.844 93.7169 224.835 94.3913 227.102L94.4355 227.333C94.8001 227.982 94.0502 229.083 93.355 229.216C92.6598 229.348 91.6001 228.831 91.4673 228.138C91.4673 228.138 91.3345 227.445 91.0689 226.058C90.759 224.441 90.1731 222.636 89.6419 219.863C89.1549 217.321 88.5794 214.316 87.8711 210.619C87.5612 209.001 87.4388 207.108 87.0404 205.028C86.6081 201.518 85.8998 197.82 85.6992 194.265C77.3284 204.483 68.7492 217.376 66.2629 231.982C65.5261 236.913 65.2867 243.186 68.9972 247.509C75.4026 255.87 91.6109 248.95 101.089 244.51C124.733 233.777 145.605 217.346 160.748 199.849C169.296 190.556 176.839 179.777 182.306 168.196C187.73 156.384 190.57 143.627 188.599 130.828C188.289 129.21 187.979 127.593 187.669 125.975C176.668 129.987 167.61 134.108 156.875 139.507C142.653 146.767 127.119 155.954 111.742 168.465C103.634 175.04 95.7912 183.001 87.9931 191.194C88.6467 195.86 89.2561 200.295 89.8655 204.73C90.2196 206.578 90.342 208.471 90.6962 210.32C91.1285 213.831 91.9357 216.791 92.4227 219.333Z" fill="white"/>
<path d="M240.283 125.772C240.051 125.817 239.864 126.092 239.908 126.323C239.4 126.18 239.4 126.18 239.168 126.224C224.392 128.081 228.25 99.321 231.911 93.3539C233.367 90.9209 236.301 88.6851 239.337 90.7416C244.305 94.1067 242.764 101.107 240.051 104.498C237.944 107.295 235.065 108.562 231.677 109.687C231.714 116.147 233.594 123.454 239.145 123.594C239.377 123.55 239.608 123.506 239.84 123.462L242.853 122.888C257.329 118.213 267.51 107.411 275.451 98.7125C276.62 97.2921 278.917 99.2499 277.516 100.714C273.777 105.02 270.512 108.037 264.456 112.784C259.282 117.123 252.763 121.958 244.454 124.978C243.803 125.341 242.644 125.562 241.717 125.739C241.486 125.783 240.978 125.64 240.515 125.728L240.283 125.772ZM236.314 92.5151C234.603 92.362 232.94 97.4695 232.742 98.9444C232.026 101.476 231.586 104.195 231.422 107.1C236.752 106.085 243.998 97.5187 237.374 93.0318C236.822 92.6579 236.314 92.5151 236.314 92.5151Z" fill="white"/>
<path d="M277.304 114.408C274.523 114.938 273.208 111.835 272.667 110.261C271.614 103.515 275.739 97.4601 279.103 93.7053C281.584 90.3582 289.007 82.7162 295.454 86.2786C296.558 87.0265 297.43 87.8184 297.839 88.6987L299.339 86.4967C301.357 83.2379 303.187 80.2543 304.697 76.8528C305.403 75.5207 307.71 76.2788 307.512 77.7537C306.887 85.7773 303.011 121.966 317.808 117.71C321.659 116.498 324.737 113.755 327.627 111.289C336.86 103.062 344.757 94.1324 352.797 84.6962C353.69 83.0888 356.174 84.7714 355.049 86.4229C345.884 97.5106 336.719 108.598 324.43 117.167C320.8 119.536 316.475 122.036 311.728 119.827C307.997 117.903 306.185 113.457 305.211 108.373C303.573 99.8224 303.734 91.8872 304.216 84.37L302.242 87.8599C297.313 95.9848 291.645 104.011 284.464 110.409C282.6 111.962 280.548 113.79 277.304 114.408ZM276.374 109.555L276.551 110.479C278.262 110.633 280.689 108.254 281.946 107.296C287.352 102.913 291.752 97.0443 295.689 91.2641C293.488 83.5393 283.87 93.5156 282.139 95.7617C280.032 98.5583 278.014 101.817 276.924 104.899C276.262 106.463 276.109 108.168 276.374 109.555Z" fill="white"/>
<path d="M355.322 96.6708C355.1 95.5154 355.806 94.1833 357.196 93.9184C358.355 93.6976 359.735 94.6324 359.956 95.7879C360.222 97.1745 359.24 98.3196 358.082 98.5403C356.691 98.8052 355.587 98.0574 355.322 96.6708Z" fill="white"/>
</svg>
