<svg width="161" height="33" viewBox="0 0 161 33" fill="none" xmlns="http://www.w3.org/2000/svg">
<path d="M157.248 19.3524C157.035 18.4557 156.669 17.5734 156.15 16.7056L155.601 15.7944C154.808 14.6662 153.878 13.7261 152.81 12.9739C151.743 12.2218 150.614 11.6867 149.424 11.3685C148.265 11.0503 147.091 10.949 145.901 11.0647C144.712 11.1804 143.614 11.5565 142.607 12.1929C141.387 12.945 140.487 13.9575 139.907 15.2303C139.328 16.4742 139.069 17.8337 139.13 19.309H157.248V19.3524ZM135.744 21.305C135.713 21.1315 135.698 20.9579 135.698 20.7843C135.698 20.6108 135.698 20.4372 135.698 20.2637C135.698 20.0901 135.698 19.9165 135.698 19.743C135.698 19.5694 135.713 19.3958 135.744 19.2223C135.866 17.718 136.278 16.3151 136.979 15.0133C137.711 13.6827 138.642 12.54 139.77 11.5854C140.899 10.6019 142.195 9.83532 143.659 9.2857C145.154 8.73608 146.725 8.46127 148.372 8.46127C149.562 8.46127 150.705 8.6059 151.804 8.89518C152.902 9.18445 153.923 9.6039 154.869 10.1535C155.845 10.7031 156.714 11.354 157.477 12.1061C158.24 12.8582 158.895 13.6827 159.444 14.5794C159.871 15.2737 160.207 16.0258 160.451 16.8358C160.726 17.6168 160.893 18.4268 160.954 19.2657C160.985 19.4392 161 19.6128 161 19.7863C161 19.9599 161 20.1335 161 20.307C161 20.4806 161 20.6542 161 20.8277C161 21.0013 160.985 21.1749 160.954 21.3484H139.45C139.785 22.6212 140.335 23.8073 141.097 24.9065C141.89 26.0347 142.82 26.9748 143.888 27.7269C144.956 28.479 146.069 29.0287 147.228 29.3758C148.418 29.694 149.607 29.7952 150.797 29.6795C151.987 29.5349 153.085 29.1444 154.091 28.508C154.61 28.1898 155.128 27.7703 155.647 27.2496L157.294 28.8117C156.135 29.8531 154.793 30.6775 153.268 31.285C151.743 31.8925 150.111 32.1962 148.372 32.1962C146.725 32.1962 145.154 31.9214 143.659 31.3718C142.195 30.8222 140.899 30.07 139.77 29.1154C138.642 28.1319 137.711 26.9893 136.979 25.6875C136.278 24.3569 135.866 22.9394 135.744 21.4352V21.305Z" fill="white"/>
<path d="M132.233 24.8631V31.6321L128.298 31.6755V29.8531C127.383 30.5763 126.316 31.1404 125.096 31.5453C123.906 31.9214 122.579 32.1094 121.115 32.1094C119.376 32.1094 117.729 31.8057 116.174 31.1982C114.648 30.5618 113.306 29.7085 112.147 28.6381C111.019 27.5678 110.119 26.3239 109.448 24.9065C108.777 23.4601 108.441 21.927 108.441 20.307C108.441 18.6871 108.777 17.1684 109.448 15.751C110.119 14.3046 111.019 13.0463 112.147 11.9759C113.306 10.9056 114.648 10.0667 116.174 9.45926C117.729 8.82286 119.376 8.50466 121.115 8.50466C122.488 8.50466 123.784 8.70715 125.004 9.11214C126.224 9.51712 127.307 10.0957 128.253 10.8478V0H132.233V24.9499V24.8631ZM126.834 28.3344C127.322 27.9873 127.78 27.5967 128.207 27.1628V20.307V13.538C127.353 12.6702 126.377 12.0049 125.279 11.542C124.181 11.0792 123.052 10.7899 121.893 10.6742C120.734 10.5585 119.59 10.6308 118.461 10.8912C117.333 11.1226 116.311 11.5276 115.396 12.1061C114.389 12.7425 113.596 13.5525 113.017 14.536C112.437 15.5196 112.071 16.5899 111.918 17.747C111.796 18.8751 111.888 20.0612 112.193 21.305C112.498 22.52 113.047 23.6915 113.84 24.8197C114.633 25.9479 115.564 26.888 116.631 27.6401C117.699 28.3923 118.812 28.9419 119.971 29.289C121.161 29.6072 122.35 29.7085 123.54 29.5927C124.73 29.4481 125.828 29.0576 126.834 28.4212V28.3344Z" fill="white"/>
<path d="M104.481 31.7623H100.547V8.93857H104.481V31.7623ZM102.514 6.16154C101.812 6.16154 101.218 5.93012 100.73 5.46728C100.242 5.00444 99.9976 4.44035 99.9976 3.77502C99.9976 3.10969 100.242 2.54561 100.73 2.08277C101.218 1.61993 101.812 1.38851 102.514 1.38851C103.216 1.38851 103.81 1.61993 104.298 2.08277C104.786 2.54561 105.03 3.10969 105.03 3.77502C105.03 4.44035 104.786 5.00444 104.298 5.46728C103.81 5.93012 103.216 6.16154 102.514 6.16154Z" fill="white"/>
<path d="M93.7953 6.8558C92.0261 5.40943 90.3637 4.44036 88.8081 3.94859C87.2525 3.4279 85.8646 3.25433 84.6445 3.4279C83.4549 3.57253 82.4635 3.97752 81.6705 4.64285C80.9079 5.27925 80.4046 6.04583 80.1606 6.94258C79.9471 7.8104 80.0233 8.72162 80.3894 9.67622C80.7859 10.6019 81.5485 11.4119 82.6771 12.1061C83.2566 12.4822 83.8972 12.8293 84.5987 13.1475C85.3003 13.4368 86.0171 13.7261 86.7492 14.0153C87.4812 14.3046 88.2285 14.5939 88.9911 14.8832C89.7537 15.1724 90.501 15.4906 91.2331 15.8378C92.8497 16.6188 94.0698 17.5734 94.8934 18.7016C95.7475 19.8008 96.266 20.9579 96.449 22.1729C96.632 23.3878 96.4948 24.6028 96.0372 25.8177C95.5797 27.0037 94.8629 28.0741 93.8868 29.0287C92.9107 29.9833 91.7059 30.7643 90.2722 31.3718C88.8386 31.9503 87.2372 32.2396 85.4681 32.2396C82.0213 32.2396 78.971 31.285 76.3173 29.3758L77.7356 25.9479C78.4677 26.6132 79.276 27.2352 80.1606 27.8137C81.0757 28.3633 82.0213 28.8117 82.9973 29.1588C83.9734 29.506 84.9648 29.7229 85.9714 29.8097C87.0084 29.8676 88.015 29.7229 88.9911 29.3758C90.2112 28.9419 91.1263 28.3633 91.7364 27.6401C92.3464 26.888 92.6819 26.0781 92.7429 25.2102C92.8344 24.111 92.6667 23.1709 92.2396 22.3898C91.8431 21.6088 91.2788 20.929 90.5467 20.3504C89.8452 19.7719 89.0064 19.2657 88.0303 18.8317C87.0847 18.3978 86.1086 17.9784 85.102 17.5734C84.0954 17.1395 83.1041 16.6911 82.128 16.2283C81.1519 15.7654 80.2674 15.2158 79.4743 14.5794C78.7117 13.943 78.0864 13.1909 77.5984 12.3231C77.1408 11.4553 76.8968 10.3994 76.8663 9.15553C76.8358 7.70916 77.1256 6.46528 77.7356 5.42389C78.3457 4.35357 79.1388 3.48575 80.1148 2.82042C81.1214 2.15509 82.2653 1.69225 83.5464 1.43191C84.858 1.14263 86.1849 1.04139 87.527 1.12817C88.8996 1.18602 90.2417 1.43191 91.5533 1.86582C92.8649 2.29973 94.0546 2.89274 95.1221 3.64485L93.841 6.81241L93.7953 6.8558Z" fill="white"/>
<path d="M65.3874 15.7944C65.9365 15.7365 66.5313 15.7076 67.1719 15.7076C67.8429 15.6787 68.4072 15.6642 68.8647 15.6642C68.8647 13.6682 68.4987 12.2797 67.7667 11.4987C67.0651 10.6887 66.15 10.2548 65.0214 10.1969C64.3809 10.168 63.664 10.2258 62.871 10.3705C62.1084 10.5151 61.3306 10.7321 60.5375 11.0214C59.7445 11.3106 58.9514 11.6578 58.1583 12.0627C57.3958 12.4677 56.6789 12.9161 56.0079 13.4079L56.6942 9.93657C57.7008 9.50266 58.8751 9.17 60.2172 8.93858C61.5899 8.67823 62.8252 8.54806 63.9233 8.54806C65.1434 8.54806 66.2873 8.70716 67.3549 9.02536C68.453 9.31463 69.3985 9.77747 70.1916 10.4139C71.0152 11.0214 71.6557 11.8024 72.1133 12.757C72.5708 13.6827 72.7996 14.7819 72.7996 16.0547V31.7189L68.8647 31.7623V29.5927C68.5902 29.8242 68.3462 30.0267 68.1327 30.2002C67.9497 30.3449 67.7514 30.4895 67.5379 30.6341C67.3549 30.7498 67.1413 30.8656 66.8973 30.9813C66.6838 31.097 66.4093 31.2271 66.0738 31.3718C65.5247 31.5743 64.8994 31.7478 64.1978 31.8925C62.6422 32.2107 61.2086 32.2396 59.897 31.9793C58.6159 31.69 57.5025 31.2271 56.5569 30.5907C55.6113 29.9254 54.8488 29.1299 54.2692 28.2042C53.6897 27.2496 53.3389 26.2516 53.2169 25.2102C53.0949 24.1689 53.2321 23.1275 53.6287 22.0861C54.0252 21.0158 54.6963 20.0467 55.6419 19.1789C56.6179 18.3111 57.899 17.5734 59.4852 16.9659C61.1018 16.3295 63.054 15.939 65.3417 15.7944H65.3874ZM68.9105 17.6168C68.2089 17.6168 67.4464 17.6457 66.6228 17.7036C65.7992 17.7325 65.0672 17.7759 64.4266 17.8338C63.176 17.9784 62.0779 18.2966 61.1323 18.7884C60.2172 19.2512 59.4394 19.8153 58.7989 20.4806C58.1888 21.1459 57.7313 21.8836 57.4263 22.6936C57.1212 23.4746 56.984 24.2412 57.0145 24.9933C57.045 25.8322 57.2737 26.6132 57.7008 27.3364C58.1583 28.0307 58.7531 28.6092 59.4852 29.0721C60.2478 29.506 61.1018 29.7808 62.0474 29.8965C63.0235 30.0122 64.0453 29.8965 65.1129 29.5494C65.8145 29.3179 66.5313 28.9563 67.2634 28.4646C67.9954 27.9439 68.5292 27.3509 68.8647 26.6855C68.8953 26.3963 68.9105 26.2082 68.9105 26.1215C68.9105 26.0347 68.9105 25.8322 68.9105 25.514V23.1709V17.5734V17.6168Z" fill="white"/>
<path d="M46.9293 19.3524C46.7158 18.4557 46.3497 17.5734 45.8312 16.7056L45.2821 15.7944C44.4891 14.6662 43.5587 13.7261 42.4911 12.9739C41.4235 12.2218 40.2949 11.6867 39.1053 11.3685C37.9462 11.0503 36.7719 10.949 35.5823 11.0647C34.3927 11.1804 33.2946 11.5565 32.288 12.1929C31.0679 12.945 30.1681 13.9575 29.5885 15.2303C29.009 16.4742 28.7497 17.8337 28.8107 19.309H46.9293V19.3524ZM25.4249 21.305C25.3944 21.1315 25.3792 20.9579 25.3792 20.7843C25.3792 20.6108 25.3792 20.4372 25.3792 20.2637C25.3792 20.0901 25.3792 19.9165 25.3792 19.743C25.3792 19.5694 25.3944 19.3958 25.4249 19.2223C25.5469 17.718 25.9587 16.3151 26.6603 15.0133C27.3923 13.6827 28.3227 12.54 29.4513 11.5854C30.5799 10.6019 31.8762 9.83532 33.3403 9.2857C34.835 8.73608 36.4059 8.46127 38.053 8.46127C39.2426 8.46127 40.3865 8.6059 41.4846 8.89518C42.5826 9.18445 43.6045 9.6039 44.5501 10.1535C45.5261 10.7031 46.3955 11.354 47.158 12.1061C47.9206 12.8582 48.5764 13.6827 49.1255 14.5794C49.5525 15.2737 49.888 16.0258 50.1321 16.8358C50.4066 17.6168 50.5743 18.4268 50.6353 19.2657C50.6658 19.4392 50.6811 19.6128 50.6811 19.7863C50.6811 19.9599 50.6811 20.1335 50.6811 20.307C50.6811 20.4806 50.6811 20.6542 50.6811 20.8277C50.6811 21.0013 50.6658 21.1749 50.6353 21.3484H29.131C29.4665 22.6212 30.0156 23.8073 30.7781 24.9065C31.5712 26.0347 32.5015 26.9748 33.5691 27.7269C34.6367 28.479 35.7501 29.0287 36.9092 29.3758C38.0988 29.694 39.2884 29.7952 40.478 29.6795C41.6676 29.5349 42.7657 29.1444 43.7723 28.508C44.2908 28.1898 44.8093 27.7703 45.3279 27.2496L46.975 28.8117C45.8159 29.8531 44.4738 30.6775 42.9487 31.285C41.4235 31.8925 39.7917 32.1962 38.053 32.1962C36.4059 32.1962 34.835 31.9214 33.3403 31.3718C31.8762 30.8222 30.5799 30.07 29.4513 29.1154C28.3227 28.1319 27.3923 26.9893 26.6603 25.6875C25.9587 24.3569 25.5469 22.9394 25.4249 21.4352V21.305Z" fill="white"/>
<path d="M13.3144 1.60548C14.3515 1.60548 15.3123 1.7935 16.1969 2.16956C17.112 2.54562 17.9051 3.05185 18.5761 3.68825C19.2472 4.32465 19.781 5.07677 20.1775 5.94459C20.574 6.78348 20.7723 7.6947 20.7723 8.67823C20.7723 9.66176 20.5588 10.5585 20.1318 11.3685C19.7352 12.1784 19.2167 12.8872 18.5761 13.4946C17.9661 14.1021 17.2798 14.6083 16.5172 15.0133C15.7546 15.3894 15.0226 15.6497 14.321 15.7944C15.4496 15.9101 16.4714 16.1849 17.3865 16.6188C18.3321 17.0527 19.1404 17.6168 19.8115 18.3111C20.4825 19.0053 21.0011 19.8297 21.3671 20.7844C21.7331 21.71 21.9162 22.737 21.9162 23.8651C21.9162 24.9933 21.6874 26.0491 21.2298 27.0327C20.8028 28.0162 20.1928 28.884 19.3997 29.6361C18.6371 30.3593 17.7373 30.9379 16.7002 31.3718C15.6631 31.7768 14.5498 31.9793 13.3602 31.9793H2.05893V3.64486H0V1.60548H13.3144ZM11.0267 29.8965C11.9723 29.8965 12.8569 29.7229 13.6804 29.3758C14.5345 29.0287 15.2666 28.5658 15.8766 27.9873C16.5172 27.3798 17.0205 26.6855 17.3865 25.9045C17.7525 25.0945 17.9356 24.2412 17.9356 23.3444C17.9356 22.4477 17.7525 21.6088 17.3865 20.8277C17.0205 20.0178 16.5172 19.3235 15.8766 18.745C15.2666 18.1375 14.5345 17.6602 13.6804 17.3131C12.8569 16.9659 11.9723 16.7924 11.0267 16.7924H6.03953V29.9399L11.0267 29.8965ZM6.03953 14.7096H11.164C11.957 14.7096 12.7044 14.565 13.4059 14.2757C14.138 13.9864 14.7633 13.5959 15.2818 13.1041C15.8309 12.5834 16.2579 11.9904 16.5629 11.3251C16.868 10.6308 17.0205 9.90765 17.0205 9.15553C17.0205 8.40342 16.868 7.6947 16.5629 7.02937C16.2579 6.33511 15.8309 5.7421 15.2818 5.25033C14.7633 4.72964 14.138 4.32465 13.4059 4.03538C12.7044 3.7461 11.957 3.60147 11.164 3.60147H6.03953V14.7096Z" fill="white"/>
</svg>
