<svg width="233" height="49" viewBox="0 0 233 49" fill="none" xmlns="http://www.w3.org/2000/svg">
<path d="M226.638 29.4111C226.33 28.0482 225.802 26.7074 225.055 25.3885L224.264 24.0037C223.121 22.2891 221.78 20.8603 220.241 19.7173C218.702 18.5743 217.076 17.761 215.361 17.2774C213.691 16.7938 211.998 16.6399 210.284 16.8158C208.569 16.9916 206.986 17.5631 205.536 18.5303C203.777 19.6733 202.48 21.212 201.645 23.1464C200.81 25.0368 200.436 27.103 200.524 29.3451H226.638V29.4111ZM195.644 32.3786C195.6 32.1148 195.578 31.851 195.578 31.5872C195.578 31.3235 195.578 31.0597 195.578 30.7959C195.578 30.5321 195.578 30.2684 195.578 30.0046C195.578 29.7408 195.6 29.477 195.644 29.2133C195.82 26.9272 196.413 24.795 197.425 22.8167C198.48 20.7944 199.821 19.0579 201.447 17.6071C203.074 16.1124 204.942 14.9474 207.052 14.1121C209.207 13.2768 211.471 12.8591 213.845 12.8591C215.559 12.8591 217.208 13.0789 218.79 13.5186C220.373 13.9582 221.846 14.5957 223.209 15.431C224.615 16.2662 225.868 17.2554 226.967 18.3984C228.067 19.5415 229.012 20.7944 229.803 22.1572C230.419 23.2123 230.902 24.3554 231.254 25.5863C231.65 26.7733 231.891 28.0043 231.979 29.2792C232.023 29.543 232.045 29.8067 232.045 30.0705C232.045 30.3343 232.045 30.5981 232.045 30.8619C232.045 31.1256 232.045 31.3894 232.045 31.6532C232.045 31.917 232.023 32.1807 231.979 32.4445H200.986C201.469 34.3789 202.26 36.1813 203.36 37.8519C204.503 39.5665 205.843 40.9953 207.382 42.1383C208.921 43.2813 210.525 44.1166 212.196 44.6442C213.911 45.1277 215.625 45.2816 217.34 45.1058C219.054 44.8859 220.637 44.2925 222.088 43.3253C222.835 42.8417 223.582 42.2042 224.33 41.4129L226.704 43.7869C225.033 45.3695 223.099 46.6225 220.901 47.5457C218.703 48.4689 216.351 48.9305 213.845 48.9305C211.471 48.9305 209.207 48.5129 207.052 47.6776C204.942 46.8423 203.074 45.6993 201.447 44.2485C199.821 42.7538 198.48 41.0172 197.425 39.0389C196.413 37.0166 195.82 34.8625 195.644 32.5764V32.3786Z" fill="#232323"/>
<path d="M190.584 37.7859V48.0732L184.913 48.1391V45.3695C183.594 46.4686 182.056 47.3258 180.297 47.9413C178.583 48.5128 176.67 48.7986 174.56 48.7986C172.054 48.7986 169.68 48.337 167.438 47.4138C165.24 46.4466 163.306 45.1497 161.635 43.5231C160.008 41.8964 158.711 40.006 157.744 37.8519C156.777 35.6537 156.293 33.3237 156.293 30.8618C156.293 28.3999 156.777 26.0919 157.744 23.9377C158.711 21.7395 160.008 19.8272 161.635 18.2006C163.306 16.5739 165.24 15.299 167.438 14.3758C169.68 13.4086 172.054 12.925 174.56 12.925C176.538 12.925 178.407 13.2328 180.165 13.8482C181.924 14.4637 183.484 15.343 184.847 16.486V0H190.584V37.9178V37.7859ZM182.803 43.0614C183.506 42.5339 184.166 41.9404 184.781 41.281V30.8618V20.5745C183.55 19.2557 182.144 18.2445 180.561 17.5411C178.978 16.8377 177.352 16.3981 175.681 16.2222C174.01 16.0464 172.362 16.1563 170.735 16.552C169.109 16.9037 167.636 17.5191 166.317 18.3984C164.866 19.3656 163.723 20.5965 162.888 22.0912C162.053 23.586 161.525 25.2126 161.305 26.9711C161.129 28.6857 161.261 30.4881 161.701 32.3785C162.14 34.2249 162.932 36.0054 164.075 37.72C165.218 39.4345 166.559 40.8633 168.097 42.0063C169.636 43.1494 171.241 43.9847 172.911 44.5122C174.626 44.9958 176.34 45.1497 178.055 44.9738C179.77 44.754 181.352 44.1605 182.803 43.1933V43.0614Z" fill="#232323"/>
<path d="M150.586 48.271H144.915V13.5845H150.586V48.271ZM147.751 9.36407C146.74 9.36407 145.882 9.01237 145.179 8.30897C144.475 7.60557 144.124 6.74829 144.124 5.73715C144.124 4.72601 144.475 3.86874 145.179 3.16534C145.882 2.46193 146.74 2.11023 147.751 2.11023C148.762 2.11023 149.619 2.46193 150.323 3.16534C151.026 3.86874 151.378 4.72601 151.378 5.73715C151.378 6.74829 151.026 7.60557 150.323 8.30897C149.619 9.01237 148.762 9.36407 147.751 9.36407Z" fill="#232323"/>
<path d="M135.185 10.4191C132.635 8.22096 130.239 6.74821 127.997 6.00084C125.755 5.20951 123.754 4.94573 121.996 5.20951C120.281 5.42932 118.853 6.0448 117.71 7.05594C116.611 8.02312 115.885 9.18813 115.533 10.551C115.226 11.8699 115.336 13.2547 115.863 14.7055C116.435 16.1123 117.534 17.3432 119.16 18.3983C119.996 18.9698 120.919 19.4974 121.93 19.981C122.941 20.4206 123.974 20.8602 125.029 21.2999C126.084 21.7395 127.162 22.1791 128.261 22.6187C129.36 23.0584 130.437 23.5419 131.492 24.0695C133.822 25.2565 135.58 26.7073 136.767 28.4218C137.998 30.0924 138.746 31.8509 139.01 33.6973C139.273 35.5438 139.075 37.3902 138.416 39.2366C137.757 41.0391 136.723 42.6657 135.317 44.1165C133.91 45.5673 132.173 46.7542 130.107 47.6775C128.041 48.5567 125.733 48.9963 123.183 48.9963C118.215 48.9963 113.819 47.5456 109.994 44.644L112.038 39.4345C113.094 40.4456 114.259 41.3908 115.533 42.2701C116.852 43.1053 118.215 43.7868 119.622 44.3143C121.029 44.8419 122.458 45.1716 123.908 45.3035C125.403 45.3914 126.854 45.1716 128.261 44.644C130.019 43.9846 131.338 43.1053 132.217 42.0063C133.097 40.8632 133.58 39.6323 133.668 38.3134C133.8 36.6428 133.558 35.214 132.943 34.0271C132.371 32.8401 131.558 31.8069 130.503 30.9277C129.492 30.0484 128.283 29.2791 126.876 28.6196C125.513 27.9602 124.106 27.3227 122.655 26.7073C121.205 26.0478 119.776 25.3664 118.369 24.663C116.962 23.9596 115.687 23.1243 114.544 22.1571C113.445 21.1899 112.544 20.0469 111.841 18.728C111.181 17.4092 110.829 15.8045 110.785 13.9141C110.742 11.716 111.159 9.82559 112.038 8.24293C112.918 6.61631 114.061 5.29743 115.467 4.28629C116.918 3.27515 118.567 2.57175 120.413 2.17608C122.304 1.73646 124.216 1.58259 126.15 1.71448C128.129 1.8024 130.063 2.17608 131.953 2.83553C133.844 3.49497 135.558 4.3962 137.097 5.53923L135.251 10.3531L135.185 10.4191Z" fill="#232323"/>
<path d="M94.2411 24.0036C95.0324 23.9157 95.8897 23.8717 96.8129 23.8717C97.7801 23.8278 98.5934 23.8058 99.2529 23.8058C99.2529 20.7724 98.7253 18.6622 97.6702 17.4752C96.6591 16.2442 95.3402 15.5848 93.7136 15.4968C92.7903 15.4529 91.7572 15.5408 90.6142 15.7606C89.5151 15.9804 88.3941 16.3101 87.251 16.7498C86.108 17.1894 84.965 17.717 83.822 18.3324C82.7229 18.9479 81.6898 19.6293 80.7226 20.3767L81.7117 15.1012C83.1625 14.4417 84.8551 13.9362 86.7894 13.5845C88.7678 13.1888 90.5482 12.991 92.1309 12.991C93.8894 12.991 95.538 13.2328 97.0767 13.7163C98.6594 14.156 100.022 14.8594 101.165 15.8266C102.352 16.7498 103.275 17.9368 103.935 19.3875C104.594 20.7943 104.924 22.4649 104.924 24.3993V48.2051L99.2529 48.271V44.9738C98.8572 45.3255 98.5055 45.6333 98.1978 45.897C97.934 46.1168 97.6482 46.3367 97.3405 46.5565C97.0767 46.7323 96.769 46.9082 96.4173 47.084C96.1095 47.2599 95.7139 47.4577 95.2303 47.6775C94.4389 47.9853 93.5377 48.249 92.5266 48.4689C90.2845 48.9524 88.2182 48.9964 86.3278 48.6007C84.4814 48.1611 82.8768 47.4577 81.5139 46.4905C80.1511 45.4794 79.052 44.2704 78.2167 42.8636C77.3814 41.4128 76.8759 39.8961 76.7 38.3135C76.5242 36.7308 76.722 35.1482 77.2935 33.5655C77.865 31.9389 78.8322 30.4661 80.195 29.1473C81.6018 27.8284 83.4483 26.7073 85.7343 25.7841C88.0644 24.8169 90.878 24.2234 94.1752 24.0036H94.2411ZM99.3188 26.7733C98.3077 26.7733 97.2086 26.8172 96.0216 26.9052C94.8346 26.9491 93.7795 27.0151 92.8563 27.103C91.0538 27.3228 89.4712 27.8064 88.1083 28.5538C86.7894 29.2572 85.6684 30.1144 84.7452 31.1256C83.8659 32.1367 83.2065 33.2578 82.7669 34.4887C82.3272 35.6757 82.1294 36.8407 82.1734 37.9838C82.2173 39.2587 82.547 40.4457 83.1625 41.5447C83.822 42.5998 84.6792 43.4791 85.7343 44.1825C86.8334 44.8419 88.0644 45.2596 89.4272 45.4354C90.834 45.6113 92.3068 45.4354 93.8454 44.9079C94.8566 44.5562 95.8897 44.0066 96.9448 43.2593C97.9999 42.4679 98.7693 41.5667 99.2529 40.5556C99.2968 40.1159 99.3188 39.8302 99.3188 39.6983C99.3188 39.5664 99.3188 39.2587 99.3188 38.7751V35.2141V26.7073V26.7733Z" fill="#232323"/>
<path d="M67.6378 29.4111C67.33 28.0482 66.8025 26.7074 66.0551 25.3885L65.2638 24.0037C64.1208 22.2891 62.7799 20.8603 61.2412 19.7173C59.7025 18.5743 58.0759 17.761 56.3613 17.2774C54.6908 16.7938 52.9982 16.6399 51.2836 16.8158C49.5691 16.9916 47.9864 17.5631 46.5357 18.5303C44.7772 19.6733 43.4803 21.212 42.645 23.1464C41.8097 25.0368 41.436 27.103 41.5239 29.3451H67.6378V29.4111ZM36.6441 32.3786C36.6001 32.1148 36.5781 31.851 36.5781 31.5872C36.5781 31.3235 36.5781 31.0597 36.5781 30.7959C36.5781 30.5321 36.5781 30.2684 36.5781 30.0046C36.5781 29.7408 36.6001 29.477 36.6441 29.2133C36.8199 26.9272 37.4134 24.795 38.4246 22.8167C39.4797 20.7944 40.8205 19.0579 42.4471 17.6071C44.0738 16.1124 45.9422 14.9474 48.0524 14.1121C50.2066 13.2768 52.4706 12.8591 54.8446 12.8591C56.5592 12.8591 58.2078 13.0789 59.7904 13.5186C61.3731 13.9582 62.8458 14.5957 64.2087 15.431C65.6155 16.2662 66.8684 17.2554 67.9675 18.3984C69.0666 19.5415 70.0117 20.7944 70.8031 22.1572C71.4186 23.2123 71.9021 24.3554 72.2538 25.5863C72.6495 26.7733 72.8913 28.0043 72.9792 29.2792C73.0232 29.543 73.0452 29.8067 73.0452 30.0705C73.0452 30.3343 73.0452 30.5981 73.0452 30.8619C73.0452 31.1256 73.0452 31.3894 73.0452 31.6532C73.0452 31.917 73.0232 32.1807 72.9792 32.4445H41.9855C42.4691 34.3789 43.2605 36.1813 44.3595 37.8519C45.5025 39.5665 46.8434 40.9953 48.3821 42.1383C49.9208 43.2813 51.5254 44.1166 53.196 44.6442C54.9106 45.1277 56.6251 45.2816 58.3397 45.1058C60.0542 44.8859 61.6369 44.2925 63.0876 43.3253C63.835 42.8417 64.5824 42.2042 65.3297 41.4129L67.7037 43.7869C66.0331 45.3695 64.0988 46.6225 61.9006 47.5457C59.7025 48.4689 57.3505 48.9305 54.8446 48.9305C52.4706 48.9305 50.2066 48.5129 48.0524 47.6776C45.9422 46.8423 44.0738 45.6993 42.4471 44.2485C40.8205 42.7538 39.4797 41.0172 38.4246 39.0389C37.4134 37.0166 36.8199 34.8625 36.6441 32.5764V32.3786Z" fill="#232323"/>
<path d="M19.1897 2.44006C20.6844 2.44006 22.0693 2.72582 23.3442 3.29734C24.6631 3.86885 25.8061 4.6382 26.7733 5.60538C27.7405 6.57256 28.5098 7.71559 29.0813 9.03447C29.6528 10.3094 29.9386 11.6942 29.9386 13.1889C29.9386 14.6837 29.6308 16.0465 29.0154 17.2775C28.4439 18.5084 27.6965 19.5855 26.7733 20.5087C25.894 21.4319 24.9049 22.2013 23.8058 22.8168C22.7067 23.3883 21.6516 23.7839 20.6405 24.0038C22.2671 24.1796 23.7399 24.5973 25.0587 25.2567C26.4216 25.9161 27.5866 26.7734 28.5538 27.8285C29.5209 28.8836 30.2683 30.1366 30.7959 31.5873C31.3234 32.9941 31.5872 34.5548 31.5872 36.2694C31.5872 37.9839 31.2575 39.5885 30.598 41.0833C29.9826 42.578 29.1033 43.8969 27.9603 45.0399C26.8612 46.139 25.5643 47.0182 24.0696 47.6777C22.5748 48.2931 20.9702 48.6009 19.2557 48.6009H2.96748V5.53943H0V2.44006H19.1897ZM15.8925 45.4356C17.2554 45.4356 18.5303 45.1718 19.7173 44.6442C20.9482 44.1167 22.0033 43.4133 22.8826 42.534C23.8058 41.6108 24.5312 40.5557 25.0587 39.3687C25.5863 38.1378 25.8501 36.8409 25.8501 35.478C25.8501 34.1152 25.5863 32.8403 25.0587 31.6533C24.5312 30.4223 23.8058 29.3672 22.8826 28.488C22.0033 27.5647 20.9482 26.8394 19.7173 26.3118C18.5303 25.7843 17.2554 25.5205 15.8925 25.5205H8.70461V45.5015L15.8925 45.4356ZM8.70461 22.3552H16.0903C17.2334 22.3552 18.3105 22.1353 19.3216 21.6957C20.3767 21.2561 21.2779 20.6626 22.0253 19.9152C22.8166 19.1239 23.4321 18.2227 23.8717 17.2115C24.3114 16.1564 24.5312 15.0574 24.5312 13.9143C24.5312 12.7713 24.3114 11.6942 23.8717 10.6831C23.4321 9.62796 22.8166 8.72673 22.0253 7.97936C21.2779 7.18804 20.3767 6.57256 19.3216 6.13293C18.3105 5.6933 17.2334 5.47349 16.0903 5.47349H8.70461V22.3552Z" fill="#232323"/>
</svg>
